<svg t="1631603584325" class="icon" viewBox="0 0 1024 1024" version="1.1" xmlns="http://www.w3.org/2000/svg" p-id="2140" width="24" height="24"><path d="M722.88 1.088h-422.4C240.832 1.088 192.512 49.408 192.512 109.056v766.272c0 59.648 48.384 107.968 107.968 107.968h422.464c59.584 0 107.968-48.448 107.968-107.968V109.12c0-59.712-48.448-108.032-108.032-108.032z m-254.72 37.76h87.232a14.912 14.912 0 0 1 0 29.888H468.16a14.912 14.912 0 0 1 0-29.888z m43.52 901.44a48.512 48.512 0 1 1 0.128-97.024 48.512 48.512 0 0 1-0.128 97.024zM751.36 768.64c0 12.16-9.856 22.08-22.08 22.08H294.144a22.144 22.144 0 0 1-22.08-22.08V137.728c0-12.16 9.92-22.016 22.08-22.016h435.072c12.16 0 22.08 9.792 22.08 22.016v630.912z" fill="#6190e8" p-id="2141"></path></svg>
