<?xml version="1.0" encoding="UTF-8"?>
<svg width="24px" height="24px" viewBox="0 0 24 24" version="1.1" xmlns="http://www.w3.org/2000/svg" xmlns:xlink="http://www.w3.org/1999/xlink">
    <!-- Generator: Sketch 51.3 (57544) - http://www.bohemiancoding.com/sketch -->
    <title>icon_tt</title>
    <desc>Created with Sketch.</desc>
    <defs></defs>
    <g id="icon_tt" stroke="none" stroke-width="1" fill="none" fill-rule="evenodd">
        <circle id="Oval-4" fill="#6190E8" fill-rule="nonzero" cx="12" cy="12" r="12"></circle>
        <path d="M18.7530483,10.7530483 L16.7530483,10.7530483 L16.7530483,9.25304833 C16.7530483,7.59619408 15.4099026,6.25304833 13.7530483,6.25304833 L10.7530483,6.25304833 C9.09619408,6.25304833 7.75304833,7.59619408 7.75304833,9.25304833 L7.75304833,10.7530483 L5.75304833,10.7530483 L5.75304833,8.25304833 C5.75304833,6.04390933 7.54390933,4.25304833 9.75304833,4.25304833 L14.7530483,4.25304833 C16.9621873,4.25304833 18.7530483,6.04390933 18.7530483,8.25304833 L18.7530483,10.7530483 Z M18.7530483,13.7530483 L18.7530483,16.2530483 C18.7530483,18.4621873 16.9621873,20.2530483 14.7530483,20.2530483 L9.75304833,20.2530483 C7.54390933,20.2530483 5.75304833,18.4621873 5.75304833,16.2530483 L5.75304833,13.7530483 L7.75304833,13.7530483 L7.75304833,15.2530483 C7.75304833,16.9099026 9.09619408,18.2530483 10.7530483,18.2530483 L13.7530483,18.2530483 C15.4099026,18.2530483 16.7530483,16.9099026 16.7530483,15.2530483 L16.7530483,13.7530483 L18.7530483,13.7530483 Z M10.7530483,9.25304833 L13.7530483,9.25304833 L13.7530483,15.2530483 L10.7530483,15.2530483 L10.7530483,9.25304833 Z" id="Combined-Shape" fill="#FFFFFF" fill-rule="nonzero" transform="translate(12.253048, 12.253048) rotate(45.000000) translate(-12.253048, -12.253048) "></path>
    </g>
</svg>