<?xml version="1.0" encoding="UTF-8"?>
<svg width="24px" height="24px" viewBox="0 0 24 24" version="1.1" xmlns="http://www.w3.org/2000/svg" xmlns:xlink="http://www.w3.org/1999/xlink">
    <!-- Generator: Sketch 51.3 (57544) - http://www.bohemiancoding.com/sketch -->
    <title>icon_wx</title>
    <desc>Created with Sketch.</desc>
    <defs></defs>
    <g id="icon_wx" stroke="none" stroke-width="1" fill="none" fill-rule="evenodd">
        <circle id="Oval-4" fill="#6190E8" fill-rule="nonzero" cx="12" cy="12" r="12"></circle>
        <path d="M9.903415,11.7218279 C10.2737591,12.9820225 8.60967578,12.6135932 7.96304784,13.8069026 C7.55623304,14.5576527 8.2686228,15.7907794 8.99278035,15.9945605 C10.9087979,16.5337361 11.61303,15.2872556 11.61303,14.2455039 C11.61303,12.2305183 11.1428046,8.16380109 12.7553158,6.88135592 C14.176841,5.75080375 15.9025438,5.75080375 17.4669947,6.63623076 C18.3814449,7.15377912 19.0452411,8.35493959 18.9967885,9.44098792 C18.8934312,11.7577059 16.2309299,13.8927898 15.229371,12.4515923 C14.3998333,11.2579256 17.5594969,10.8644041 17.1990509,9.26416128 C16.7786425,7.39770803 14.6517233,7.76196163 13.9093389,8.4412358 C12.8384856,9.42105571 14.0190304,12.9249757 13.1748212,15.8206194 C12.191623,17.5301714 10.7141907,18.0583646 9.44248316,17.9918189 C8.75032612,17.9555998 8.1191117,17.7431988 7.66169586,17.4491981 C6.62607778,16.783562 5.33165887,14.2785339 6.40086429,12.6135932 C7.36423229,11.1134599 9.53307091,10.4616333 9.903415,11.7218279 Z" id="Rectangle-10" fill="#FFFFFF" fill-rule="nonzero"></path>
    </g>
</svg>